<svg width="46" height="46" viewBox="0 0 46 46" fill="none" xmlns="http://www.w3.org/2000/svg">
<g id="search">
<mask id="mask0_16_33" style="mask-type:alpha" maskUnits="userSpaceOnUse" x="0" y="0" width="46" height="46">
<rect id="Bounding box" y="0.846802" width="45" height="45" transform="rotate(-1.07827 0 0.846802)" fill="#D9D9D9"/>
</mask>
<g mask="url(#mask0_16_33)">
<path id="search_2" d="M37.9292 40.7338L25.801 29.0537C24.8772 29.79 23.7397 30.3818 22.3885 30.8292C21.0373 31.2766 19.6587 31.5135 18.2527 31.5399C14.5346 31.6099 11.3625 30.3803 8.73629 27.8512C6.11011 25.322 4.76203 22.1984 4.69205 18.4803C4.62207 14.7622 5.85165 11.5901 8.3808 8.9639C10.91 6.33771 14.0336 4.98963 17.7517 4.91965C21.4698 4.84967 24.6419 6.07925 27.2681 8.60841C29.8943 11.1376 31.2424 14.2612 31.3123 17.9793C31.3388 19.3853 31.1688 20.7325 30.8024 22.0208C30.4359 23.3092 29.8872 24.4604 29.1561 25.4743L41.3321 37.2004L37.9292 40.7338ZM18.1592 26.5721C20.5025 26.528 22.4636 25.6862 24.0424 24.0468C25.6212 22.4075 26.3886 20.4161 26.3445 18.0728C26.3004 15.7294 25.4586 13.7684 23.8192 12.1896C22.1799 10.6108 20.1885 9.84341 17.8452 9.88752C15.5018 9.93162 13.5408 10.7734 11.962 12.4127C10.3832 14.0521 9.61581 16.0435 9.65992 18.3868C9.70402 20.7301 10.5458 22.6912 12.1851 24.27C13.8245 25.8488 15.8159 26.6162 18.1592 26.5721Z" fill="#F5F5F5"/>
</g>
</g>
</svg>
